<?xml version="1.0" encoding="utf-8"?>
<!-- Generator: Adobe Illustrator 25.4.1, SVG Export Plug-In . SVG Version: 6.00 Build 0)  -->
<svg version="1.1" id="Layer_1" xmlns="http://www.w3.org/2000/svg" xmlns:xlink="http://www.w3.org/1999/xlink" x="0px" y="0px"
	 viewBox="0 0 48 48" style="enable-background:new 0 0 48 48;" xml:space="preserve">
<style type="text/css">
	.st0{fill:#F2F2F2;}
</style>
<path class="st0" d="M16,6C10.5,6,6,10.5,6,16v16c0,5.5,4.5,10,10,10h16c5.5,0,10-4.5,10-10V16c0-5.5-4.5-10-10-10H16z M36,10
	c1.1,0,2,0.9,2,2s-0.9,2-2,2s-2-0.9-2-2S34.9,10,36,10z M24,14c5.5,0,10,4.5,10,10s-4.5,10-10,10s-10-4.5-10-10S18.5,14,24,14z
	 M24,18c-3.3,0-6,2.7-6,6s2.7,6,6,6s6-2.7,6-6S27.3,18,24,18z"/>
</svg>
