<svg xmlns="http://www.w3.org/2000/svg" viewBox="0 0 238.8 52"><defs><style>.cls-1{fill:#60a65f;}.cls-2{fill:#2c5b61;}</style></defs><g id="Layer_2" data-name="Layer 2"><g id="Layer_1-2" data-name="Layer 1"><path class="cls-1" d="M12.1,15.8c0,3.5,0,4.6,3.2,4.6,3,0,3.7-.1,5-.1,4.1,0,4.2.6,4.2,3.9v.6c0,5.2,0,5.9-4.9,5.9-1.4,0-4-.1-5-.1-2.4,0-2.4.5-2.4,4.2V45.7c0,2.9,0,5.8-4.3,5.8H4.3C0,51.5,0,48.6,0,45.7V6.1C0,3.9,0,.3,4.3.3H22.1c1.8,0,3.4.7,3.4,2.2V8.6c0,1.4-.6,1.8-3.2,1.8-1.8,0-2.3-.1-5.7-.1C12.1,10.3,12.1,11.6,12.1,15.8Z"/><path class="cls-1" d="M51.2,41c3,0,3.4,1.6,3.4,3.7v.9c0,2.9,0,5.8-4.3,5.8H34c-4.3,0-4.3-2.9-4.3-5.8V6c0-2.9,0-5.8,4.3-5.8h3.6c4.3,0,4.3,2.9,4.3,5.8V37c0,1.7,0,4,2.2,4C48,41.2,49.7,41,51.2,41Z"/><path class="cls-1" d="M58.5,20.1C58.5,8.5,59.6,0,74.8,0,89.3,0,90.3,8.4,90.3,19.8c0,4.3.2,8.6.2,12.4,0,11.4-1.8,19.7-15.7,19.7-15.2,0-16.3-8.5-16.3-20,0-1.9.1-3.9.1-5.9S58.5,22,58.5,20.1ZM70.8,14V36.7c0,2.2,0,5,3.6,5s3.6-2.9,3.6-5V14c0-1.8,0-4-3.6-4S70.8,12.2,70.8,14Z"/><path class="cls-1" d="M113.6.4c10.7,0,13.8,7.7,13.8,16.2,0,5.2-.1,8.5-4.2,12-2,1.7-3.3.7-3.3,3.5,0,3,.9,6.6,3.3,6.6a8.52,8.52,0,0,0,2.3-.4c2.3,0,2.7,1.9,2.7,5.3,0,1.6-.1,3.5-.1,5.7,0,1.4-.6,2.7-4.3,2.7-6.6,0-10-4.9-11.4-10.2-1.7-6.7-3.9-7.8-4.3-7.8-.6,0-.6,1.2-.6,1.7V45.9c0,2.9,0,5.8-4.3,5.8h-5c-2.9,0-2.9-2.9-2.9-5.8V6.3c0-2.9,0-5.8,4.3-5.8h14Zm-6.2,12.8c0,.9.1,2.6.1,4.1s-.1,2.7-.1,3.6c0,2.4.4,2.8,3.3,2.8,3.2,0,4-3.2,4-6.4s-.7-7.2-4-7.2C107.8,10.1,107.4,10.6,107.4,13.2Z"/><path class="cls-1" d="M168.1,47.9c0,3.3-2.2,3.6-6.3,3.6H158c-4.5,0-2.2-10.8-5.1-10.8h-5.8c-2.9,0-1.2,10.8-5.5,10.8h-3.5c-3.7,0-6-.3-6-3.6,0-4.3,1.7-8.1,7.3-41.8.6-3.6,2-5.8,4.9-5.8h11.1c2.9,0,4.3,2.2,5,5.8C165.4,35.6,168.1,43.6,168.1,47.9Zm-21-19.2c0,1.2.5,1.2,2.8,1.2s2.8,0,2.8-1.1a6.25,6.25,0,0,0-.1-1.2c-.9-7.1-1.2-15.8-2.7-15.8s-2,8.6-2.7,15.8A4.91,4.91,0,0,0,147.1,28.7Z"/><path class="cls-2" d="M175.9,51.5c-1.3,0-3.3,0-3.3-2.9V41.4c0-2.9,2-2.9,3.3-2.9h5.8c1.7,0,3.1,0,3.1,2.9v7.2c0,2.9-1.4,2.9-3.1,2.9Z"/><path class="cls-1" d="M202,45.7c0,2.9,0,5.8-4.3,5.8h-3.6c-4.3,0-4.3-2.9-4.3-5.8V6.1c0-2.9,0-5.8,4.3-5.8h3.6c4.3,0,4.3,2.9,4.3,5.8Z"/><path class="cls-1" d="M206.8,20.1C206.8,8.5,207.9,0,223.1,0c14.5,0,15.5,8.4,15.5,19.8,0,4.3.2,8.6.2,12.4,0,11.4-1.8,19.7-15.7,19.7-15.2,0-16.3-8.5-16.3-20,0-1.9.1-3.9.1-5.9S206.8,22,206.8,20.1ZM219.1,14V36.7c0,2.2,0,5,3.6,5s3.6-2.9,3.6-5V14c0-1.8,0-4-3.6-4S219.1,12.2,219.1,14Z"/></g></g></svg>