<svg id="artwork" xmlns="http://www.w3.org/2000/svg" xmlns:xlink="http://www.w3.org/1999/xlink" viewBox="0 0 133.15 40"><defs><style>.cls-1{fill:#a6a6a6;}.cls-10,.cls-2,.cls-3{fill:#fff;}.cls-2{stroke:#fff;stroke-miterlimit:10;stroke-width:0.2px;}.cls-4{fill:url(#linear-gradient);}.cls-5{fill:url(#linear-gradient-2);}.cls-6{fill:url(#linear-gradient-3);}.cls-7{fill:url(#linear-gradient-4);}.cls-10,.cls-8,.cls-9{isolation:isolate;}.cls-8{opacity:0.2;}.cls-9{opacity:0.12;}.cls-10{opacity:0.25;}</style><linearGradient id="linear-gradient" x1="21.66" y1="173.29" x2="4.87" y2="156.51" gradientTransform="matrix(1, 0, 0, -1, 0, 182)" gradientUnits="userSpaceOnUse"><stop offset="0" stop-color="#00a0ff"/><stop offset="0.01" stop-color="#00a1ff"/><stop offset="0.26" stop-color="#00beff"/><stop offset="0.51" stop-color="#00d2ff"/><stop offset="0.76" stop-color="#00dfff"/><stop offset="1" stop-color="#00e3ff"/></linearGradient><linearGradient id="linear-gradient-2" x1="33.37" y1="162" x2="9.51" y2="162" gradientTransform="matrix(1, 0, 0, -1, 0, 182)" gradientUnits="userSpaceOnUse"><stop offset="0" stop-color="#ffe000"/><stop offset="0.41" stop-color="#ffbd00"/><stop offset="0.78" stop-color="orange"/><stop offset="1" stop-color="#ff9c00"/></linearGradient><linearGradient id="linear-gradient-3" x1="24.5" y1="159.72" x2="1.9" y2="137.12" gradientTransform="matrix(1, 0, 0, -1, 0, 182)" gradientUnits="userSpaceOnUse"><stop offset="0" stop-color="#ff3a44"/><stop offset="1" stop-color="#c31162"/></linearGradient><linearGradient id="linear-gradient-4" x1="7.09" y1="181.69" x2="17.18" y2="171.6" gradientTransform="matrix(1, 0, 0, -1, 0, 182)" gradientUnits="userSpaceOnUse"><stop offset="0" stop-color="#32a071"/><stop offset="0.07" stop-color="#2da771"/><stop offset="0.48" stop-color="#15cf74"/><stop offset="0.8" stop-color="#06e775"/><stop offset="1" stop-color="#00f076"/></linearGradient></defs><path d="M128.22,40H4.93A5,5,0,0,1,0,35V5A5,5,0,0,1,4.93,0H128.22a5,5,0,0,1,4.93,5V35A5,5,0,0,1,128.22,40Z"/><path class="cls-1" d="M128.22.8A4.17,4.17,0,0,1,132.36,5V35a4.17,4.17,0,0,1-4.14,4.2H4.93A4.17,4.17,0,0,1,.79,35V5A4.17,4.17,0,0,1,4.93.8H128.22m0-.8H4.93A5,5,0,0,0,0,5V35a5,5,0,0,0,4.93,5H128.22a5,5,0,0,0,4.93-5V5a5,5,0,0,0-4.93-5Z"/><path class="cls-2" d="M46.77,10.24a2.75,2.75,0,0,1-.74,2,2.83,2.83,0,0,1-2.17.88,3,3,0,0,1-2.18-.9A3,3,0,0,1,40.79,10a3,3,0,0,1,.89-2.23,3.08,3.08,0,0,1,3.39-.65,2.43,2.43,0,0,1,.93.67l-.52.53a2,2,0,0,0-1.62-.72,2.28,2.28,0,0,0-1.62.67A2.32,2.32,0,0,0,41.56,10a2.32,2.32,0,0,0,.68,1.73,2.28,2.28,0,0,0,1.62.67,2.25,2.25,0,0,0,1.65-.67,1.92,1.92,0,0,0,.5-1.22H43.86V9.79h2.87A3.75,3.75,0,0,1,46.77,10.24Z"/><path class="cls-2" d="M51.31,7.74H48.62v1.9h2.43v.72H48.62v1.9h2.69V13H47.86V7h3.45Z"/><path class="cls-2" d="M54.52,13h-.76V7.74H52.11V7h4.06v.74H54.52Z"/><path class="cls-2" d="M59.12,13V7h.76v6Z"/><path class="cls-2" d="M63.25,13h-.76V7.74H60.84V7H64.9v.74H63.25Z"/><path class="cls-2" d="M72.6,12.22a3,3,0,0,1-4.34,0A3.07,3.07,0,0,1,67.39,10a3.07,3.07,0,0,1,.87-2.22,3,3,0,0,1,4.34,0A3.1,3.1,0,0,1,73.47,10,3.07,3.07,0,0,1,72.6,12.22Zm-3.78-.5a2.25,2.25,0,0,0,3.22,0A2.35,2.35,0,0,0,72.7,10,2.35,2.35,0,0,0,72,8.28a2.25,2.25,0,0,0-3.22,0A2.39,2.39,0,0,0,68.17,10,2.39,2.39,0,0,0,68.82,11.72Z"/><path class="cls-2" d="M74.54,13V7h.92l2.88,4.67h0l0-1.16V7h.76v6h-.79l-3-4.89h0l0,1.15V13Z"/><path class="cls-3" d="M67.2,21.75A4.26,4.26,0,1,0,71.41,26,4.16,4.16,0,0,0,67.2,21.75Zm0,6.83A2.45,2.45,0,0,1,64.83,26a2.38,2.38,0,1,1,4.74,0A2.45,2.45,0,0,1,67.2,28.58ZM58,21.75A4.26,4.26,0,1,0,62.23,26,4.16,4.16,0,0,0,58,21.75Zm0,6.83A2.44,2.44,0,0,1,55.65,26a2.37,2.37,0,1,1,4.73,0A2.44,2.44,0,0,1,58,28.58ZM47.09,23.06v1.8h4.26a3.76,3.76,0,0,1-1,2.27,4.33,4.33,0,0,1-3.29,1.32,4.8,4.8,0,0,1,0-9.6,4.53,4.53,0,0,1,3.21,1.29l1.25-1.27a6.14,6.14,0,0,0-4.46-1.82,6.61,6.61,0,1,0,0,13.21,5.92,5.92,0,0,0,4.54-1.85,6,6,0,0,0,1.54-4.23,6.27,6.27,0,0,0-.09-1.12Zm44.69,1.4a3.92,3.92,0,0,0-3.59-2.71,4,4,0,0,0-4,4.25,4.17,4.17,0,0,0,7.66,2.37l-1.43-1a2.39,2.39,0,0,1-2.07,1.17,2.12,2.12,0,0,1-2-1.29L92,24.94Zm-5.72,1.42a2.31,2.31,0,0,1,2.19-2.48,1.63,1.63,0,0,1,1.56.9ZM81.5,30h1.84V17.5H81.5Zm-3-7.3h-.07a2.87,2.87,0,0,0-2.21-.95,4.26,4.26,0,0,0,0,8.51,2.81,2.81,0,0,0,2.21-1h.07v.61c0,1.63-.86,2.5-2.24,2.5a2.34,2.34,0,0,1-2.12-1.51l-1.6.67a4,4,0,0,0,3.72,2.52c2.16,0,4-1.29,4-4.43V22H78.48Zm-2.12,5.88A2.42,2.42,0,0,1,74,26a2.44,2.44,0,0,1,2.33-2.59A2.38,2.38,0,0,1,78.6,26,2.36,2.36,0,0,1,76.36,28.58Zm24-11.08H96V30h1.84V25.26h2.57a3.88,3.88,0,1,0,0-7.76Zm0,6H97.84V19.24h2.62a2.14,2.14,0,1,1,0,4.28Zm11.37-1.79a3.44,3.44,0,0,0-3.28,1.91l1.63.69a1.74,1.74,0,0,1,1.68-.91A1.79,1.79,0,0,1,113.8,25v.12a4.07,4.07,0,0,0-1.92-.48c-1.76,0-3.55,1-3.55,2.82a2.86,2.86,0,0,0,3.06,2.75A2.58,2.58,0,0,0,113.73,29h.07v1h1.77V25.19C115.57,23,113.94,21.73,111.83,21.73Zm-.22,6.85c-.6,0-1.44-.31-1.44-1.06,0-1,1-1.34,2-1.34a3.24,3.24,0,0,1,1.68.42A2.24,2.24,0,0,1,111.61,28.58ZM122.05,22l-2.11,5.42h-.07L117.68,22h-2L119,29.58l-1.88,4.21H119L124.09,22Zm-16.58,8h1.84V17.5h-1.84Z"/><path class="cls-4" d="M10.29,7.54a2,2,0,0,0-.45,1.4V31.06a2,2,0,0,0,.45,1.4l.08.08L22.58,20.15v-.3L10.37,7.47Z"/><path class="cls-5" d="M26.66,24.28l-4.08-4.13v-.3l4.08-4.13.09.06,4.83,2.78c1.37.79,1.37,2.09,0,2.89l-4.83,2.78Z"/><path class="cls-6" d="M26.75,24.23,22.58,20,10.29,32.46a1.59,1.59,0,0,0,2.05.07l14.41-8.3"/><path class="cls-7" d="M26.75,15.78,12.34,7.48a1.58,1.58,0,0,0-2.05.06L22.58,20Z"/><path class="cls-8" d="M26.66,24.13,12.34,32.38a1.62,1.62,0,0,1-2,0h0l-.08.07h0l.08.08h0a1.62,1.62,0,0,0,2,0l14.41-8.3Z"/><path class="cls-9" d="M10.29,32.32a2.07,2.07,0,0,1-.45-1.41v.15a2,2,0,0,0,.45,1.4l.08-.07Z"/><path class="cls-9" d="M31.58,21.3l-4.92,2.83.09.1,4.83-2.79a1.76,1.76,0,0,0,1-1.44h0A1.88,1.88,0,0,1,31.58,21.3Z"/><path class="cls-10" d="M12.34,7.62,31.58,18.7a1.88,1.88,0,0,1,1,1.3h0a1.74,1.74,0,0,0-1-1.44L12.34,7.48c-1.38-.8-2.5-.14-2.5,1.46v.15C9.84,7.49,11,6.83,12.34,7.62Z"/></svg>