<?xml version="1.0" encoding="utf-8"?>
<!-- Generator: Adobe Illustrator 26.0.1, SVG Export Plug-In . SVG Version: 6.00 Build 0)  -->
<svg version="1.1" id="Layer_1" xmlns="http://www.w3.org/2000/svg" xmlns:xlink="http://www.w3.org/1999/xlink" x="0px" y="0px"
	 viewBox="0 0 60 60" style="enable-background:new 0 0 60 60;" xml:space="preserve">
<style type="text/css">
	.st0{fill:#F2F2F2;}
</style>
<path class="st0" d="M48,8H12c-2.2,0-4,1.8-4,4v36c0,2.2,1.8,4,4,4h36c2.2,0,4-1.8,4-4V12C52,9.8,50.2,8,48,8z M45.4,26.9
	c-0.3,0-0.5,0-0.8,0c-3,0-5.6-1.5-7.1-3.9c0,6.1,0,13,0,13.2c0,5.4-4.4,9.7-9.7,9.7c-5.4,0-9.7-4.4-9.7-9.7c0-5.4,4.4-9.7,9.7-9.7
	c0.2,0,0.4,0,0.6,0v4.8c-0.2,0-0.4-0.1-0.6-0.1c-2.7,0-5,2.2-5,5s2.2,5,5,5s5.2-2.2,5.2-4.9c0-0.1,0-22.3,0-22.3h4.6
	c0.4,4.1,3.7,7.3,7.9,7.6V26.9z"/>
</svg>
