<?xml version="1.0" encoding="utf-8"?>
<!-- Generator: Adobe Illustrator 26.0.1, SVG Export Plug-In . SVG Version: 6.00 Build 0)  -->
<svg version="1.1" id="Layer_1" xmlns="http://www.w3.org/2000/svg" xmlns:xlink="http://www.w3.org/1999/xlink" x="0px" y="0px"
	 viewBox="0 0 48 48" style="enable-background:new 0 0 48 48;" xml:space="preserve">
<style type="text/css">
	.st0{fill:#F2F2F2;}
</style>
<path class="st0" d="M38,6H10c-2.2,0-4,1.8-4,4v28c0,2.2,1.8,4,4,4h28c2.2,0,4-1.8,4-4V10C42,7.8,40.2,6,38,6z M34.1,19
	c0,0.2,0,0.3,0,0.7c0,6.5-5,14.1-14.1,14.1c-2.7,0-5.3-0.9-7.5-2.2c0.3,0,0.9,0,1.2,0c2.2,0,4.5-0.9,6.2-2.1c-2.2,0-3.9-1.5-4.6-3.4
	c0.3,0,0.7,0.2,0.9,0.2c0.5,0,0.9,0,1.4-0.2c-2.2-0.5-3.9-2.4-3.9-4.8c0.7,0.3,1.4,0.5,2.2,0.7c-1.4-1.2-2.2-2.6-2.2-4.3
	c0-0.9,0.2-1.7,0.7-2.4c2.4,2.9,6,5,10.1,5.1c0-0.3-0.2-0.7-0.2-1.2c0-2.7,2.2-5,5-5c1.4,0,2.7,0.5,3.6,1.5c1.2-0.2,2.2-0.7,3.1-1.2
	c-0.3,1.2-1.2,2.1-2.2,2.7c1-0.2,1.9-0.3,2.9-0.9C35.8,17.5,35,18.3,34.1,19z"/>
</svg>
